<!-- <svg width="800px" height="800px" viewBox="-18.458 -22.75 191.151 191.151" xmlns="http://www.w3.org/2000/svg"><path d="M-18.458 6.58h191.151v132.49H-18.458V6.58z" fill="none"/><path d="M40.054 113.583h-5.175c-.183-8.735-.687-16.947-1.511-24.642h-.046l-7.879 24.642h-3.94l-7.832-24.642h-.045c-.581 7.388-.947 15.602-1.099 24.642H7.81c.304-10.993 1.068-21.299 2.289-30.919h6.414l7.465 22.719h.046l7.511-22.719h6.137c1.344 11.268 2.138 21.575 2.382 30.919M62.497 90.771c-2.107 11.434-4.887 19.742-8.337 24.928-2.688 3.992-5.633 5.99-8.84 5.99-.855 0-1.91-.258-3.16-.77v-2.757c.611.088 1.328.138 2.152.138 1.498 0 2.702-.412 3.62-1.238 1.098-1.006 1.647-2.137 1.647-3.388 0-.858-.428-2.612-1.282-5.268L42.618 90.77h5.084l4.076 13.19c.916 2.995 1.298 5.086 1.145 6.277 2.229-5.953 3.786-12.444 4.673-19.468h4.901v.002z" fill="#5d87a1"/><path d="M131.382 113.583h-14.7V82.664h4.945v27.113h9.755v3.806zM112.834 114.33l-5.684-2.805c.504-.414.986-.862 1.42-1.381 2.416-2.838 3.621-7.035 3.621-12.594 0-10.229-4.014-15.346-12.045-15.346-3.938 0-7.01 1.298-9.207 3.895-2.414 2.84-3.619 7.022-3.619 12.551 0 5.435 1.068 9.422 3.205 11.951 1.955 2.291 4.902 3.438 8.843 3.438 1.47 0 2.819-.18 4.048-.543l7.4 4.308 2.018-3.474zm-18.413-6.934c-1.252-2.014-1.878-5.248-1.878-9.707 0-7.785 2.365-11.682 7.1-11.682 2.475 0 4.289.932 5.449 2.792 1.25 2.017 1.879 5.222 1.879 9.619 0 7.849-2.367 11.774-7.099 11.774-2.476.001-4.29-.928-5.451-2.796M85.165 105.013c0 2.622-.962 4.773-2.884 6.458-1.924 1.678-4.504 2.519-7.737 2.519-3.024 0-5.956-.966-8.794-2.888l1.329-2.655c2.442 1.223 4.653 1.831 6.638 1.831 1.863 0 3.319-.413 4.375-1.232 1.055-.822 1.684-1.975 1.684-3.433 0-1.837-1.281-3.407-3.631-4.722-2.167-1.19-6.501-3.678-6.501-3.678-2.349-1.712-3.525-3.55-3.525-6.578 0-2.506.877-4.529 2.632-6.068 1.757-1.545 4.024-2.315 6.803-2.315 2.87 0 5.479.769 7.829 2.291l-1.192 2.656c-2.01-.854-3.994-1.281-5.951-1.281-1.585 0-2.809.381-3.66 1.146-.858.762-1.387 1.737-1.387 2.933 0 1.828 1.308 3.418 3.722 4.759 2.196 1.192 6.638 3.723 6.638 3.723 2.409 1.709 3.612 3.53 3.612 6.534" fill="#f8981d"/><path d="M137.59 72.308c-2.99-.076-5.305.225-7.248 1.047-.561.224-1.453.224-1.531.933.303.3.338.784.601 1.198.448.747 1.229 1.752 1.942 2.276.783.6 1.569 1.194 2.393 1.717 1.453.899 3.1 1.422 4.516 2.318.825.521 1.645 1.195 2.471 1.756.406.299.666.784 1.193.971v-.114c-.264-.336-.339-.822-.598-1.196l-1.122-1.082c-1.084-1.456-2.431-2.727-3.884-3.771-1.196-.824-3.812-1.944-4.297-3.322l-.076-.076c.822-.077 1.797-.375 2.578-.604 1.271-.335 2.43-.259 3.734-.594.6-.15 1.195-.338 1.797-.523v-.337c-.676-.673-1.158-1.567-1.869-2.203-1.902-1.643-3.998-3.25-6.164-4.595-1.16-.749-2.652-1.231-3.887-1.868-.445-.225-1.195-.336-1.457-.71-.67-.822-1.047-1.904-1.533-2.877-1.08-2.053-2.129-4.331-3.061-6.502-.674-1.456-1.084-2.91-1.906-4.257-3.85-6.35-8.031-10.196-14.457-13.971-1.381-.786-3.024-1.121-4.779-1.533l-2.803-.148c-.598-.262-1.197-.973-1.719-1.309-2.132-1.344-7.621-4.257-9.189-.411-1.01 2.431 1.494 4.821 2.354 6.054.635.856 1.458 1.83 1.902 2.802.263.635.337 1.309.6 1.98.598 1.644 1.157 3.473 1.943 5.007.41.782.857 1.604 1.381 2.312.3.414.822.597.936 1.272-.521.744-.562 1.867-.861 2.801-1.344 4.221-.819 9.45 1.086 12.552.596.934 2.018 2.99 3.92 2.202 1.684-.672 1.311-2.801 1.795-4.668.111-.451.038-.747.262-1.043v.073c.521 1.045 1.047 2.052 1.53 3.1 1.159 1.829 3.177 3.735 4.858 5.002.895.676 1.604 1.832 2.725 2.245V74.1h-.074c-.227-.335-.559-.485-.857-.745-.674-.673-1.42-1.495-1.943-2.241-1.566-2.093-2.952-4.41-4.182-6.801-.602-1.16-1.121-2.428-1.606-3.586-.226-.447-.226-1.121-.601-1.346-.562.821-1.381 1.532-1.791 2.538-.711 1.609-.785 3.588-1.049 5.646l-.147.072c-1.19-.299-1.604-1.53-2.056-2.575-1.119-2.654-1.307-6.914-.336-9.976.26-.783 1.385-3.249.936-3.995-.225-.715-.973-1.122-1.383-1.685-.482-.708-1.01-1.604-1.346-2.39-.896-2.091-1.347-4.408-2.312-6.498-.451-.974-1.234-1.982-1.868-2.879-.712-1.008-1.495-1.718-2.058-2.913-.186-.411-.447-1.083-.148-1.53.073-.3.225-.412.523-.487.484-.409 1.867.111 2.352.336 1.385.56 2.543 1.083 3.699 1.867.523.375 1.084 1.085 1.755 1.272h.786c1.193.26 2.538.072 3.661.41 1.979.636 3.772 1.569 5.38 2.576 4.893 3.103 8.928 7.512 11.652 12.778.447.858.637 1.644 1.045 2.539.787 1.832 1.76 3.7 2.541 5.493.785 1.755 1.533 3.547 2.654 5.005.559.784 2.805 1.195 3.812 1.606.745.335 1.905.633 2.577 1.044 1.271.783 2.537 1.682 3.732 2.543.595.448 2.465 1.382 2.576 2.13M99.484 39.844a5.82 5.82 0 0 0-1.529.188v.075h.072c.301.597.824 1.011 1.197 1.532.301.599.562 1.193.857 1.791l.072-.074c.527-.373.789-.971.789-1.868-.227-.264-.262-.522-.451-.784-.22-.374-.705-.56-1.007-.86" fill="#5d87a1"/><path d="M141.148 113.578h.774v-3.788h-1.161l-.947 2.585-1.029-2.585h-1.118v3.788h.731v-2.882h.041l1.078 2.882h.557l1.074-2.882v2.882zm-6.235 0h.819v-3.146h1.072v-.643h-3.008v.643h1.115l.002 3.146z" fill="#f8981d"/></svg> -->
<svg width="800px" height="800px" viewBox="0 0 32 32" xmlns="http://www.w3.org/2000/svg"><title>file_type_mysql</title><path d="M8.785,6.865a3.055,3.055,0,0,0-.785.1V7h.038a6.461,6.461,0,0,0,.612.785c.154.306.288.611.441.917.019-.019.038-.039.038-.039a1.074,1.074,0,0,0,.4-.957,4.314,4.314,0,0,1-.23-.4c-.115-.191-.364-.287-.517-.44" style="fill:#5d87a1;fill-rule:evenodd"/><path d="M27.78,23.553a8.849,8.849,0,0,0-3.712.536c-.287.115-.745.115-.785.478.154.153.172.4.307.613a4.467,4.467,0,0,0,.995,1.167c.4.306.8.611,1.225.879.745.461,1.588.728,2.314,1.187.422.268.842.612,1.264.9.21.153.343.4.611.5v-.058a3.844,3.844,0,0,0-.291-.613c-.191-.19-.383-.363-.575-.554a9.118,9.118,0,0,0-1.99-1.932c-.613-.422-1.953-1-2.2-1.7l-.039-.039a7.69,7.69,0,0,0,1.321-.308c.65-.172,1.243-.133,1.912-.3.307-.077.862-.268.862-.268v-.3c-.342-.34-.587-.795-.947-1.116a25.338,25.338,0,0,0-3.122-2.328c-.587-.379-1.344-.623-1.969-.946-.226-.114-.6-.17-.737-.36a7.594,7.594,0,0,1-.776-1.457c-.548-1.04-1.079-2.193-1.551-3.293a20.236,20.236,0,0,0-.965-2.157A19.078,19.078,0,0,0,11.609,5a9.07,9.07,0,0,0-2.421-.776c-.474-.02-.946-.057-1.419-.075A7.55,7.55,0,0,1,6.9,3.485C5.818,2.8,3.038,1.328,2.242,3.277,1.732,4.508,3,5.718,3.435,6.343A8.866,8.866,0,0,1,4.4,7.762c.133.322.171.663.3,1A22.556,22.556,0,0,0,5.687,11.3a8.946,8.946,0,0,0,.7,1.172c.153.209.417.3.474.645a5.421,5.421,0,0,0-.436,1.419,8.336,8.336,0,0,0,.549,6.358c.3.473,1.022,1.514,1.987,1.116.851-.34.662-1.419.908-2.364.056-.229.019-.379.132-.53V19.3s.483,1.061.723,1.6a10.813,10.813,0,0,0,2.4,2.59A3.514,3.514,0,0,1,14,24.657V25h.427A1.054,1.054,0,0,0,14,24.212a9.4,9.4,0,0,1-.959-1.16,24.992,24.992,0,0,1-2.064-3.519c-.3-.6-.553-1.258-.793-1.857-.11-.231-.11-.58-.295-.7a7.266,7.266,0,0,0-.884,1.313,11.419,11.419,0,0,0-.517,2.921c-.073.02-.037,0-.073.038-.589-.155-.792-.792-1.014-1.332a8.756,8.756,0,0,1-.166-5.164c.128-.405.683-1.681.461-2.068-.111-.369-.48-.58-.682-.871a7.767,7.767,0,0,1-.663-1.237C5.912,9.5,5.69,8.3,5.212,7.216a10.4,10.4,0,0,0-.921-1.489A9.586,9.586,0,0,1,3.276,4.22c-.092-.213-.221-.561-.074-.793a.3.3,0,0,1,.259-.252c.238-.212.921.058,1.16.174a9.2,9.2,0,0,1,1.824.967c.258.194.866.685.866.685h.18c.612.133,1.3.037,1.876.21a12.247,12.247,0,0,1,2.755,1.32,16.981,16.981,0,0,1,5.969,6.545c.23.439.327.842.537,1.3.4.94.9,1.9,1.3,2.814a12.578,12.578,0,0,0,1.36,2.564c.286.4,1.435.612,1.952.822a13.7,13.7,0,0,1,1.32.535c.651.4,1.3.861,1.913,1.3.305.23,1.262.708,1.32,1.091" style="fill:#00758f;fill-rule:evenodd"/></svg>