<?xml version="1.0" encoding="utf-8"?>
<svg version="1.1" id="layer" xmlns="http://www.w3.org/2000/svg" xmlns:xlink="http://www.w3.org/1999/xlink" x="0px" y="0px"
	 viewBox="0 0 652 652" style="enable-background:new 0 0 652 652;" xml:space="preserve">
<style type="text/css">
	.st0{fill:#00ADBA;}
	.st1{fill:#87CDD7;}
</style>
<path class="st0" d="M93.5,347.2c-9.1,0-16.4-7.4-16.4-16.4c0-9.1,7.4-16.4,16.4-16.4c7.9,0,14.5,5.6,16.1,13.1
	c0-23-18.7-41.7-41.8-41.7c-23.1,0-41.8,18.7-41.8,41.8c0,0.7,0,1.5,0.1,2.2c0.6-8.5,7.7-15.3,16.4-15.3c9.1,0,16.4,7.4,16.4,16.4
	c0,9.1-7.4,16.4-16.4,16.4c-7.2,0-13.3-4.6-15.5-11.1c4,18.9,20.8,33.1,40.9,33.1c19.4,0,35.7-13.3,40.4-31.2
	C105.5,343.5,100,347.2,93.5,347.2z"/>
<path class="st0" d="M67.8,358.6c-23.1,0-41.8,8.3-41.8,18.5c0,3.1,1.7,6.1,4.8,8.6c-1.4-5.7,5.6-11.4,8.7-13.2
	c-4.4,12.2,10,20.3,13.1,21.8c0,0,0.1,0,0.1,0c-1-2.2-1.6-4.6-1.6-7.2c0-9.5,7.7-17.1,17.1-17.1s17.1,7.7,17.1,17.1
	c0,2.5-0.5,4.8-1.5,6.9c0.1,0,0.2,0,0.4-0.1c3.9-2,16.8-9.9,12.6-21.6c3,1.7,9.4,6.8,8.9,12.2c2.4-2.3,3.7-4.9,3.7-7.6
	C109.6,366.9,90.9,358.6,67.8,358.6z M199.7,327.3c0,11.7-4.3,21.8-12.8,30.3c-8.5,8.5-18.6,12.6-30.3,12.2
	c-11.3-0.3-20.9-4.6-28.8-12.8c-7.8-8.3-11.8-18.1-11.8-29.5c0-11.9,4.2-22.1,12.7-30.6c8.5-8.5,18.6-12.6,30.3-12.2
	c11.3,0.4,20.9,4.7,28.8,13.1C195.7,306,199.7,315.9,199.7,327.3z M188.8,326.5c-0.3-8.6-3.4-16-9.2-22.1
	c-5.9-6.1-12.9-9.2-21.2-9.2c-8.7-0.1-16.1,2.9-22.2,9.1c-6.1,6.2-9.2,13.6-9.3,22.3c-0.2,8.6,2.6,16.1,8.4,22.6s12.9,9.8,21.3,10.1
	c9,0.5,16.6-2.6,23-9.3C185.9,343.3,189,335.5,188.8,326.5z M287.9,344l-1.1,2.4c-8.6,15.8-21.8,23.6-39.7,23.4
	c-11.8-0.1-22-4.2-30.5-12.4c-8.6-8.2-12.9-18.1-13-29.8c-0.2-11.8,4-21.9,12.6-30.3s18.9-12.7,30.9-12.9c8.6-0.1,16.6,2.1,24,6.7
	c7,4.4,12.1,9.9,15.1,16.6l1.6,3.6h-12.3c-6.1-10.6-15.4-16-28-16.3c-8.4-0.2-15.9,2.9-22.6,9.2c-7,6.5-10.4,14.2-10.4,23
	c0,8.9,3.2,16.5,9.7,22.8c6.5,6.3,14.2,9.5,23,9.4c12.7-0.2,22.2-5.3,28.5-15.3L287.9,344L287.9,344z M319.7,369.7
	c-19.8,0-29.7-8.4-29.7-25.3v-86.4h10.9v28.4h18.8v10.1h-18.8v46c0,12.1,6.3,18.1,18.8,18.1L319.7,369.7L319.7,369.7z M401.1,327.3
	c0,11.7-4.3,21.8-12.8,30.3c-8.5,8.5-18.6,12.6-30.3,12.2c-11.3-0.3-20.9-4.6-28.8-12.8c-7.8-8.3-11.8-18.1-11.8-29.5
	c0-11.9,4.2-22.1,12.7-30.6c8.5-8.5,18.6-12.6,30.3-12.2c11.3,0.4,20.9,4.7,28.8,13.1C397.1,306,401.1,315.9,401.1,327.3z
	 M390.2,326.5c-0.3-8.6-3.4-16-9.2-22.1c-5.9-6.1-12.9-9.2-21.2-9.2c-8.7-0.1-16.1,2.9-22.2,9.1c-6.1,6.2-9.2,13.6-9.3,22.3
	c-0.2,8.6,2.6,16.1,8.4,22.6s12.9,9.8,21.3,10.1c9,0.5,16.6-2.6,23-9.3C387.3,343.3,390.4,335.5,390.2,326.5z"/>
<path class="st1" d="M441.1,327.3c-4.6,0.2-8.3,1.4-11.1,3.8s-4.8,4.4-5.8,6.1c-1.6,2.9-2.5,6.6-2.5,11.4v44.2h-10.4v-73.8h9.2v10.5
	c2.1-4,5.1-7,9.2-9.2c3.7-2,7.5-2.9,11.4-2.7V327.3L441.1,327.3z M514.4,355.7v0.5v36.5h-9.8v-11.5c-8,9.2-17.8,13.6-29.4,13.2
	c-10.1-0.3-18.8-4.3-25.9-11.8c-7.1-7.5-10.7-16.4-10.7-26.8c0-10.8,3.8-20.1,11.5-27.8c7.7-7.7,16.9-11.4,27.6-10.9
	c10.4,0.3,19.2,4.3,26.4,11.8C511.3,336.5,514.7,345.4,514.4,355.7z M504.5,354.9c-0.2-7.8-2.9-14.5-8.3-20
	c-5.4-5.5-11.8-8.3-19.3-8.3c-7.9,0-14.6,2.8-20.1,8.3c-5.5,5.5-8.4,12.2-8.4,20.1c-0.2,7.8,2.4,14.6,7.7,20.4
	c5.3,5.8,11.8,8.9,19.3,9.3c8.1,0.3,15.1-2.5,20.8-8.5C501.9,370.3,504.7,363.2,504.5,354.9z M551.7,394.3c-18,0-26.9-7.6-26.9-22.9
	V293h9.8v25.8h17.1v9.2h-17.1v41.7c0,11,5.7,16.4,17.1,16.4V394.3z M626,359.2h-66.3c0.8,7.4,3.9,13.6,9.5,18.4
	c5.5,4.8,12,7.2,19.6,7.1c11.7-0.2,20-5.6,25-16.2h10.5c-2.8,7.9-7.4,14.2-14,18.9c-6.6,4.7-13.9,7-21.9,7.1
	c-10.1,0.2-19-3.5-26.8-11.1c-7.8-7.6-11.7-16.6-11.9-27c-0.3-11.1,3.6-20.6,11.7-28.6c8.1-8,17.6-11.7,28.6-11.1
	c9.8,0.6,18.4,4.7,25.7,12.2c7,7.4,10.5,15.7,10.5,24.9L626,359.2L626,359.2z M616.3,350.1c-1.4-6.9-4.6-12.5-9.7-16.8
	c-5.1-4.3-11.2-6.5-18.3-6.5c-7.1-0.1-13.3,2-18.6,6.3c-5.3,4.3-8.7,10-10,17L616.3,350.1L616.3,350.1z"/>
<path class="st0" d="M58.5,330.8c0,4.3-3.5,7.8-7.8,7.8c-4.3,0-7.8-3.5-7.8-7.8c0-4.3,3.5-7.8,7.8-7.8
	C55,323.1,58.5,326.5,58.5,330.8z M109.2,330.8c0,4.3-3.5,7.8-7.8,7.8c-4.3,0-7.8-3.5-7.8-7.8c0-4.3,3.5-7.8,7.8-7.8
	C105.7,323.1,109.2,326.5,109.2,330.8z"/>
</svg>
